<svg width="375" height="192" viewBox="0 0 375 192" fill="none" xmlns="http://www.w3.org/2000/svg">
<g clip-path="url(#clip0_7_7)">
<rect width="375" height="192" fill="white"/>
<rect x="5" y="5" width="365" height="182" rx="36" fill="#00D1FF" stroke="#00D1FF" stroke-width="10"/>
<path d="M101.709 127H90.3809C90.1204 127 89.9902 126.837 89.9902 126.512L90.0879 57.8105C90.0879 57.5501 90.2507 57.4199 90.5762 57.4199H101.709C102.035 57.4199 102.197 57.5501 102.197 57.8105L102.1 85.0078H117.09V57.8105C117.09 57.5501 117.22 57.4199 117.48 57.4199H128.613C128.939 57.4199 129.102 57.5501 129.102 57.8105L129.297 126.512C129.297 126.837 129.134 127 128.809 127H117.578C117.253 127 117.09 126.837 117.09 126.512V97.1172H102.1V126.512C102.1 126.837 101.969 127 101.709 127ZM134.082 126.512L146.484 57.8105C146.549 57.5501 146.712 57.4199 146.973 57.4199H161.475C161.735 57.4199 161.898 57.5501 161.963 57.8105L173.877 126.512C173.91 126.837 173.779 127 173.486 127H162.402C162.077 127 161.898 126.837 161.865 126.512L160.791 119.188H147.168L146.094 126.512C146.061 126.837 145.898 127 145.605 127H134.473C134.212 127 134.082 126.837 134.082 126.512ZM154.688 80.418L154.102 76.707L153.662 80.418L149.17 108.494H158.789L154.688 80.418ZM191.846 127H180.518C180.257 127 180.127 126.837 180.127 126.512L180.322 57.8105C180.322 57.5501 180.452 57.4199 180.713 57.4199H200.928C204.541 57.4199 207.861 58.2988 210.889 60.0566C213.916 61.8145 216.325 64.1745 218.115 67.1367C219.938 70.099 220.85 73.4518 220.85 77.1953C220.85 79.6367 220.475 81.8503 219.727 83.8359C218.978 85.8216 218.099 87.498 217.09 88.8652C216.113 90.2324 215.218 91.2415 214.404 91.8926C218.018 95.8965 219.824 100.6 219.824 106.004L219.922 126.512C219.922 126.837 219.759 127 219.434 127H208.105C207.845 127 207.715 126.902 207.715 126.707V106.004C207.715 103.595 206.868 101.512 205.176 99.7539C203.483 97.9961 201.4 97.1172 198.926 97.1172H192.334L192.236 126.512C192.236 126.837 192.106 127 191.846 127ZM200.928 69.3828H192.334V85.1055H200.928C202.979 85.1055 204.801 84.3405 206.396 82.8105C208.024 81.2806 208.838 79.4089 208.838 77.1953C208.838 75.0794 208.057 73.2565 206.494 71.7266C204.932 70.1641 203.076 69.3828 200.928 69.3828ZM240.186 127H228.857C228.532 127 228.369 126.837 228.369 126.512L228.467 57.8105C228.467 57.5501 228.597 57.4199 228.857 57.4199H240.088C240.348 57.4199 240.479 57.5501 240.479 57.8105L240.576 126.512C240.576 126.837 240.446 127 240.186 127ZM266.357 127.977C262.809 127.977 259.538 127.065 256.543 125.242C253.581 123.419 251.204 120.994 249.414 117.967C247.656 114.907 246.777 111.554 246.777 107.908V103.318C246.777 102.96 246.94 102.781 247.266 102.781H258.496C258.757 102.781 258.887 102.96 258.887 103.318V107.908C258.887 110.089 259.619 111.977 261.084 113.572C262.549 115.135 264.307 115.916 266.357 115.916C268.441 115.916 270.215 115.118 271.68 113.523C273.145 111.896 273.877 110.024 273.877 107.908C273.877 105.467 272.282 103.335 269.092 101.512C268.571 101.186 267.887 100.796 267.041 100.34C266.227 99.8516 265.251 99.2982 264.111 98.6797C262.972 98.0612 261.865 97.459 260.791 96.873C259.717 96.2546 258.675 95.6686 257.666 95.1152C254.02 92.9668 251.302 90.2812 249.512 87.0586C247.754 83.8034 246.875 80.1576 246.875 76.1211C246.875 72.4102 247.786 69.0573 249.609 66.0625C251.432 63.1003 253.809 60.7565 256.738 59.0312C259.701 57.2734 262.907 56.3945 266.357 56.3945C269.906 56.3945 273.161 57.2734 276.123 59.0312C279.085 60.8216 281.445 63.1979 283.203 66.1602C284.993 69.1224 285.889 72.4427 285.889 76.1211V84.3242C285.889 84.5846 285.758 84.7148 285.498 84.7148H274.268C274.007 84.7148 273.877 84.5846 273.877 84.3242L273.779 76.1211C273.779 73.7773 273.047 71.873 271.582 70.4082C270.117 68.9434 268.376 68.2109 266.357 68.2109C264.307 68.2109 262.549 68.9922 261.084 70.5547C259.619 72.1172 258.887 73.9727 258.887 76.1211C258.887 78.3021 259.342 80.125 260.254 81.5898C261.198 83.0547 262.907 84.4544 265.381 85.7891C265.641 85.9193 266.243 86.2448 267.188 86.7656C268.132 87.2865 269.173 87.8724 270.312 88.5234C271.484 89.1419 272.542 89.7116 273.486 90.2324C274.43 90.7207 275 91.0137 275.195 91.1113C278.516 92.9668 281.136 95.2454 283.057 97.9473C285.01 100.649 285.986 103.969 285.986 107.908C285.986 111.717 285.107 115.135 283.35 118.162C281.559 121.189 279.183 123.582 276.221 125.34C273.258 127.098 269.971 127.977 266.357 127.977Z" fill="white"/>
</g>
<defs>
<clipPath id="clip0_7_7">
<rect width="375" height="192" fill="white"/>
</clipPath>
</defs>
</svg>
